<svg width="20" height="40" viewBox="0 0 20 40" fill="none" xmlns="http://www.w3.org/2000/svg">
<path d="M3.684 33.818V38H3.138V36.104H1.008V38H0.462V33.818H1.008V35.654H3.138V33.818H3.684ZM4.4123 36.344C4.4123 36.008 4.4803 35.714 4.6163 35.462C4.7523 35.206 4.9383 35.008 5.1743 34.868C5.4143 34.728 5.6803 34.658 5.9723 34.658C6.2603 34.658 6.5103 34.72 6.7223 34.844C6.9343 34.968 7.0923 35.124 7.1963 35.312V34.712H7.7483V38H7.1963V37.388C7.0883 37.58 6.9263 37.74 6.7103 37.868C6.4983 37.992 6.2503 38.054 5.9663 38.054C5.6743 38.054 5.4103 37.982 5.1743 37.838C4.9383 37.694 4.7523 37.492 4.6163 37.232C4.4803 36.972 4.4123 36.676 4.4123 36.344ZM7.1963 36.35C7.1963 36.102 7.1463 35.886 7.0463 35.702C6.9463 35.518 6.8103 35.378 6.6383 35.282C6.4703 35.182 6.2843 35.132 6.0803 35.132C5.8763 35.132 5.6903 35.18 5.5223 35.276C5.3543 35.372 5.2203 35.512 5.1203 35.696C5.0203 35.88 4.9703 36.096 4.9703 36.344C4.9703 36.596 5.0203 36.816 5.1203 37.004C5.2203 37.188 5.3543 37.33 5.5223 37.43C5.6903 37.526 5.8763 37.574 6.0803 37.574C6.2843 37.574 6.4703 37.526 6.6383 37.43C6.8103 37.33 6.9463 37.188 7.0463 37.004C7.1463 36.816 7.1963 36.598 7.1963 36.35ZM8.46698 36.344C8.46698 36.008 8.53498 35.714 8.67098 35.462C8.80698 35.206 8.99298 35.008 9.22898 34.868C9.46898 34.728 9.73698 34.658 10.033 34.658C10.289 34.658 10.527 34.718 10.747 34.838C10.967 34.954 11.135 35.108 11.251 35.3V33.56H11.803V38H11.251V37.382C11.143 37.578 10.983 37.74 10.771 37.868C10.559 37.992 10.311 38.054 10.027 38.054C9.73498 38.054 9.46898 37.982 9.22898 37.838C8.99298 37.694 8.80698 37.492 8.67098 37.232C8.53498 36.972 8.46698 36.676 8.46698 36.344ZM11.251 36.35C11.251 36.102 11.201 35.886 11.101 35.702C11.001 35.518 10.865 35.378 10.693 35.282C10.525 35.182 10.339 35.132 10.135 35.132C9.93098 35.132 9.74498 35.18 9.57698 35.276C9.40898 35.372 9.27498 35.512 9.17498 35.696C9.07498 35.88 9.02498 36.096 9.02498 36.344C9.02498 36.596 9.07498 36.816 9.17498 37.004C9.27498 37.188 9.40898 37.33 9.57698 37.43C9.74498 37.526 9.93098 37.574 10.135 37.574C10.339 37.574 10.525 37.526 10.693 37.43C10.865 37.33 11.001 37.188 11.101 37.004C11.201 36.816 11.251 36.598 11.251 36.35ZM13.0077 34.178C12.9037 34.178 12.8157 34.142 12.7437 34.07C12.6717 33.998 12.6357 33.91 12.6357 33.806C12.6357 33.702 12.6717 33.614 12.7437 33.542C12.8157 33.47 12.9037 33.434 13.0077 33.434C13.1077 33.434 13.1917 33.47 13.2597 33.542C13.3317 33.614 13.3677 33.702 13.3677 33.806C13.3677 33.91 13.3317 33.998 13.2597 34.07C13.1917 34.142 13.1077 34.178 13.0077 34.178ZM13.2717 34.712V38H12.7257V34.712H13.2717ZM14.8682 35.162V37.1C14.8682 37.26 14.9022 37.374 14.9702 37.442C15.0382 37.506 15.1562 37.538 15.3242 37.538H15.7262V38H15.2342C14.9302 38 14.7022 37.93 14.5502 37.79C14.3982 37.65 14.3222 37.42 14.3222 37.1V35.162H13.8962V34.712H14.3222V33.884H14.8682V34.712H15.7262V35.162H14.8682ZM18.0198 34.652C18.2678 34.652 18.4918 34.706 18.6918 34.814C18.8918 34.918 19.0478 35.076 19.1598 35.288C19.2758 35.5 19.3338 35.758 19.3338 36.062V38H18.7938V36.14C18.7938 35.812 18.7118 35.562 18.5478 35.39C18.3838 35.214 18.1598 35.126 17.8758 35.126C17.5878 35.126 17.3578 35.216 17.1858 35.396C17.0178 35.576 16.9338 35.838 16.9338 36.182V38H16.3878V33.56H16.9338V35.18C17.0418 35.012 17.1898 34.882 17.3778 34.79C17.5698 34.698 17.7838 34.652 18.0198 34.652Z" fill="white" fill-opacity="0.3"/>
<path d="M9.00882 7.77257C9.18317 7.61591 9.19314 7.35227 9.03107 7.18373C8.86906 7.01519 8.59633 7.0056 8.42192 7.16222C7.62376 7.87945 7.16595 8.89465 7.16595 9.94755C7.16595 12.044 8.93038 13.7496 11.0991 13.7496C13.2678 13.7496 15.0323 12.044 15.0323 9.94755C15.0323 7.85111 13.2678 6.14551 11.0991 6.14551C10.8611 6.14551 10.6681 6.33207 10.6681 6.56217C10.6681 6.79227 10.8611 6.97883 11.0991 6.97883C12.7925 6.97883 14.1702 8.31059 14.1702 9.94755C14.1702 11.5845 12.7925 12.9163 11.0991 12.9163C9.40569 12.9163 8.02801 11.5845 8.02801 9.94755C8.02796 9.12542 8.3855 8.33267 9.00882 7.77257Z" fill="white" fill-opacity="0.3"/>
<path d="M6.93495 14.2583C7.10332 15.1213 7.80757 15.7575 8.73213 15.8277C8.96704 15.8455 9.17997 15.9971 9.28784 16.2232C9.5512 16.7752 10.0683 17.1688 10.6679 17.298V17.6566C10.6679 17.8867 10.8609 18.0732 11.0989 18.0732C11.337 18.0732 11.5299 17.8867 11.5299 17.6566V17.298C12.1295 17.1688 12.6467 16.7753 12.9099 16.2233C13.0179 15.9971 13.2308 15.8456 13.4656 15.8277C14.2706 15.7666 15.0843 15.2143 15.2647 14.2581C16.2546 14.1463 17.0256 13.3306 17.0256 12.3441V7.76079C17.0256 7.53069 16.8326 7.34413 16.5946 7.34413C16.3565 7.34413 16.1635 7.53069 16.1635 7.76079V12.3441C16.1635 12.9472 15.6559 13.4378 15.0321 13.4378H14.8704C14.6324 13.4378 14.4394 13.6244 14.4394 13.8545C14.4394 14.5526 13.9156 14.9576 13.3982 14.9969C12.8527 15.0383 12.3656 15.3745 12.1271 15.8743C11.9427 16.2609 11.5391 16.5108 11.0989 16.5108C10.6587 16.5108 10.2551 16.2609 10.0707 15.8743C9.83234 15.3745 9.34527 15.0383 8.79959 14.9969C8.28219 14.9576 7.75844 14.5526 7.75844 13.8545C7.75844 13.6244 7.56544 13.4378 7.32741 13.4378H7.16577C6.54185 13.4378 6.03432 12.9472 6.03432 12.3441V7.76079C6.03432 7.15767 6.54185 6.66705 7.16577 6.66705H7.32741C7.56544 6.66705 7.75844 6.48049 7.75844 6.25039C7.75844 5.55227 8.28219 5.14728 8.79959 5.10796C9.34527 5.06655 9.83234 4.73036 10.0707 4.23062C10.2551 3.84406 10.6588 3.59422 11.0989 3.59422C11.5391 3.59422 11.9427 3.84401 12.1271 4.23073C12.3656 4.73046 12.8527 5.06665 13.3982 5.10806C13.9156 5.14733 14.4394 5.55238 14.4394 6.2505C14.4394 6.4806 14.6324 6.66716 14.8704 6.66716C15.1085 6.66716 15.3015 6.4806 15.3015 6.2505C15.3015 5.1879 14.5294 4.35807 13.4657 4.27729C13.2308 4.25947 13.0179 4.10791 12.91 3.88177C12.6467 3.32975 12.1295 2.93616 11.53 2.80694V2.4484C11.53 2.2183 11.337 2.03174 11.099 2.03174C10.8609 2.03174 10.6679 2.2183 10.6679 2.4484V2.80694C10.0684 2.93616 9.55125 3.32969 9.28789 3.88177C9.18003 4.10791 8.9671 4.25942 8.73219 4.27729C7.92724 4.33843 7.11356 4.89072 6.93328 5.84685C5.94326 5.95862 5.17236 6.77434 5.17236 7.7609V12.3442C5.17226 13.3313 5.94412 14.1474 6.93495 14.2583Z" fill="white" fill-opacity="0.3"/>
<path d="M18.2649 21.9269C18.5029 21.9269 18.6959 21.7403 18.6959 21.5102V19.8681C19.28 19.748 19.7196 19.2455 19.7196 18.6456V1.24999C19.7196 0.560775 19.1395 0 18.4265 0H5.85366C5.61562 0 5.42263 0.186561 5.42263 0.416662C5.42263 0.646764 5.61562 0.833325 5.85366 0.833325H18.4265C18.6642 0.833325 18.8576 1.02025 18.8576 1.24999V18.6456C18.8576 18.8754 18.6642 19.0623 18.4265 19.0623H2.5323C1.89276 19.0623 1.30823 19.2931 0.86206 19.6726V2.44789C0.86206 1.55764 1.61135 0.833325 2.5323 0.833325V16.8227C2.5323 17.0528 2.72529 17.2394 2.96333 17.2394C3.20137 17.2394 3.39436 17.0528 3.39436 16.8227V0.416662C3.39436 0.186561 3.20137 0 2.96333 0H2.5323C1.13598 0 0 1.09811 0 2.44789V21.5102C0 22.86 1.13598 23.9581 2.5323 23.9581H3.75411C3.75411 24.6503 4.43104 25.1404 5.11207 24.9636L5.98054 24.7382C6.90812 24.979 6.94158 25 7.1322 25C7.708 25 8.20692 24.5495 8.20692 23.9613C8.20692 23.9561 7.68882 23.9581 19.073 23.9581C19.3111 23.9581 19.5041 23.7715 19.5041 23.5414C19.5041 23.3113 19.3111 23.1248 19.073 23.1248H8.20697V21.9269H18.2649ZM7.34491 23.9613C7.34491 24.0962 7.21022 24.1946 7.07261 24.1588L6.09234 23.9043C6.01912 23.8853 5.94196 23.8853 5.86874 23.9043L4.88847 24.1588C4.75033 24.1946 4.61617 24.0957 4.61617 23.9613V23.5414C4.61617 23.3113 4.42318 23.1248 4.18514 23.1248H2.5323C1.61135 23.1248 0.86206 22.4004 0.86206 21.5102C0.86206 20.6199 1.61135 19.8956 2.5323 19.8956H17.8339V21.0935H3.5769C3.33887 21.0935 3.14587 21.2801 3.14587 21.5102C3.14587 21.7403 3.33887 21.9269 3.5769 21.9269H7.34497V23.9613H7.34491Z" fill="white" fill-opacity="0.3"/>
</svg>
