<svg width="55" height="56" viewBox="0 0 55 56" fill="none" xmlns="http://www.w3.org/2000/svg">
<path d="M28.2012 6.68765C29.9662 6.68765 31.4378 5.45538 31.7917 3.80807C31.1659 4.44132 30.2942 4.83068 29.3319 4.83068C27.4245 4.83068 25.8795 3.2989 25.8795 1.4077C25.8795 0.90709 25.9874 0.427873 26.1859 0C25.1891 0.650367 24.5288 1.77139 24.5288 3.04218C24.5288 5.05318 26.173 6.68337 28.2012 6.68337V6.68765Z" fill="#F8E5A8"/>
<g opacity="0.47">
<path d="M25.9227 0.355134C25.8148 0.697433 25.7587 1.04829 25.7587 1.41198C25.7587 3.36736 27.364 4.95477 29.3319 4.95477C30.1518 4.95477 30.9286 4.68093 31.5586 4.18032C31.0753 5.58374 29.7246 6.56357 28.2012 6.56357C26.2463 6.56357 24.654 4.98472 24.654 3.04645C24.654 1.99817 25.12 1.01834 25.9184 0.355134M26.1859 0.00427873C25.1891 0.654645 24.5288 1.77567 24.5288 3.04645C24.5288 5.05746 26.173 6.68765 28.2012 6.68765C29.9662 6.68765 31.4378 5.45538 31.7917 3.80807C31.1659 4.44132 30.2942 4.83068 29.3319 4.83068C27.4245 4.83068 25.8795 3.2989 25.8795 1.4077C25.8795 0.90709 25.9874 0.427873 26.1859 0V0.00427873Z" fill="#F8E5A8"/>
</g>
<path d="M34.9029 23.2547V24.0591H30.937V23.2547C30.937 22.292 29.2928 20.4479 27.5063 19.0145C25.7154 20.4564 24.0712 22.2963 24.0712 23.2547V24.0591H20.1053V23.2547C20.1053 19.4723 25.1457 15.784 26.3238 14.9754L27.0661 15.7113L27.5926 16.2333L28.119 15.7113L28.7922 15.0438C30.1257 15.9766 34.9115 19.5664 34.9115 23.2547H34.9029ZM30.9327 31.5897H25.8405V35.5218H34.9029V25.8177H30.937V31.5897H30.9327ZM24.0669 42.9796H34.864V53.3299H27.2258C26.2203 53.3299 24.8652 53.5353 23.5059 53.9631C22.1465 54.391 20.0967 55.88 20.0967 55.88V25.8177H24.0625V37.2847H29.1547V41.2168H24.0625V42.9754L24.0669 42.9796ZM24.0669 46.9118V49.3977H30.8982V46.9118H24.0669ZM29.2842 7.29077C28.9347 7.38063 28.5722 7.42769 28.201 7.42769C27.489 7.42769 26.8115 7.25654 26.2159 6.95703L24.7746 8.38613L26.8115 10.4057L24.7746 12.4252L27.5796 15.2064L30.3846 12.4252L28.3478 10.4057L30.3846 8.38613L29.2799 7.29077H29.2842ZM30.9327 41.2168H34.8986V37.2847H30.9327V41.2168Z" fill="url(#paint0_linear_2174_4265)"/>
<g opacity="0.47">
<path d="M26.2418 7.10679C26.8589 7.40202 27.5149 7.5475 28.201 7.5475C28.5506 7.5475 28.9001 7.50471 29.2454 7.42341L30.212 8.38185L28.2658 10.3116L28.1795 10.3971L28.2658 10.4827L30.212 12.4124L27.5839 15.0182L24.9558 12.4124L26.9021 10.4827L26.9884 10.3971L26.9021 10.3116L24.9558 8.38185L26.2462 7.10251M26.3023 15.1337L26.9711 15.7969L27.4976 16.3189L27.5839 16.4045L27.6702 16.3189L28.1967 15.7969L28.7966 15.2021C30.3113 16.2675 34.7777 19.7205 34.7777 23.2504V23.9307H31.0578V23.2504C31.0578 22.1893 29.254 20.2596 27.5796 18.9118L27.5019 18.8476L27.4243 18.9118C25.7456 20.2639 23.9417 22.1936 23.9417 23.2504V23.9307H20.2218V23.2504C20.2218 19.5921 25.1026 15.968 26.3023 15.1337ZM34.7777 25.9417V35.402H25.9656V31.7138H31.0578V25.9417H34.7777ZM23.9417 25.9417V37.4087H29.0339V41.097H23.9417V43.1037H34.7389V53.2101H27.2258C26.1253 53.2101 24.753 53.4411 23.467 53.8476C22.3364 54.2028 20.7699 55.2596 20.2218 55.6447V25.9417H23.9417ZM23.9417 49.5175H31.019V46.7877H23.9417V49.5175ZM34.7777 37.4087V41.097H31.0578V37.4087H34.7777ZM26.2203 6.95703L24.7789 8.38613L26.8158 10.4057L24.7789 12.4252L27.5839 15.2064L30.389 12.4252L28.3521 10.4057L30.389 8.38613L29.2842 7.29077C28.9347 7.38063 28.5722 7.42769 28.201 7.42769C27.489 7.42769 26.8115 7.25654 26.2159 6.95703H26.2203ZM26.3152 14.9754C25.1371 15.784 20.0967 19.4723 20.0967 23.2547V24.0591H24.0625V23.2547C24.0625 22.2963 25.711 20.4521 27.4976 19.0145C29.2842 20.4521 30.9284 22.292 30.9284 23.2547V24.0591H34.8942V23.2547C34.8942 19.5707 30.1128 15.9766 28.775 15.0438L28.1018 15.7113L27.5753 16.2333L27.0488 15.7113L26.3066 14.9754H26.3152ZM34.9029 25.8177H30.937V31.5897H25.8448V35.5218H34.9072V25.8177H34.9029ZM24.0669 25.8177H20.101V55.88C20.101 55.88 22.1508 54.391 23.5102 53.9631C24.8695 53.5353 26.2289 53.3299 27.2301 53.3299H34.8684V42.9796H24.0712V41.2211H29.1634V37.2889H24.0712V25.8219L24.0669 25.8177ZM24.0669 49.3977V46.9118H30.8982V49.3977H24.0669ZM34.9029 37.2847H30.937V41.2168H34.9029V37.2847Z" fill="#F8E5A8"/>
</g>
<path d="M46.9519 23.5754V12.2881H31.8911C33.1685 13.285 34.7652 14.6371 36.3058 16.2202H42.9861V25.2013L49.3901 31.5509L42.9861 37.9006V46.8816H36.979V50.8138H46.9562V39.5265L55.0045 31.5466L46.9562 23.5668L46.9519 23.5754Z" fill="#943182"/>
<path d="M8.04825 23.5754V12.2881H19.4323H23.1091C21.8317 13.285 20.235 14.6371 18.6944 16.2202H12.0141V25.2013L5.61004 31.5509L12.0141 37.9006V46.8816H17.9392V50.8138H8.04825V39.5265L0 31.5552L8.04825 23.5754Z" fill="#943182"/>
<path d="M42.8738 27.5033L41.5274 28.8383C40.3407 30.0149 38.7353 30.6738 37.0566 30.6738V32.4324C38.731 32.4324 40.3407 33.0913 41.5274 34.268L42.8738 35.6029L46.9605 31.551L42.8738 27.499V27.5033Z" fill="#852E7A"/>
<path d="M41.2901 17.9834H37.0566V22.1808H41.2901V17.9834Z" fill="#852E7A"/>
<path d="M41.2901 40.9561H37.0566V45.1535H41.2901V40.9561Z" fill="#852E7A"/>
<path d="M12.1263 27.5033L13.4727 28.8383C14.6594 30.0149 16.2647 30.6738 17.9434 30.6738V32.4324C16.2691 32.4324 14.6594 33.0913 13.4727 34.268L12.1263 35.6029L8.03955 31.551L12.1263 27.499V27.5033Z" fill="#852E7A"/>
<path d="M17.939 17.9834H13.7056V22.1808H17.939V17.9834Z" fill="#852E7A"/>
<path d="M17.939 40.9561H13.7056V45.1535H17.939V40.9561Z" fill="#852E7A"/>
<defs>
<linearGradient id="paint0_linear_2174_4265" x1="14.4953" y1="22.3091" x2="51.0953" y2="56.1871" gradientUnits="userSpaceOnUse">
<stop stop-color="#FDCC87"/>
<stop offset="1" stop-color="#D6AF6B"/>
</linearGradient>
</defs>
</svg>
