<svg width="208" height="101" viewBox="0 0 208 101" fill="none" xmlns="http://www.w3.org/2000/svg">
<path d="M90.546 15.324V20.53H83.478V42H76.98V20.53H69.912V15.324H90.546ZM101.471 21.696C103.775 21.696 105.623 22.464 107.015 24C108.407 25.512 109.103 27.6 109.103 30.264V42H102.983V31.092C102.983 29.748 102.635 28.704 101.939 27.96C101.243 27.216 100.307 26.844 99.1312 26.844C97.9552 26.844 97.0192 27.216 96.3232 27.96C95.6272 28.704 95.2792 29.748 95.2792 31.092V42H89.1232V15.36H95.2792V24.612C95.9032 23.724 96.7552 23.016 97.8352 22.488C98.9152 21.96 100.127 21.696 101.471 21.696ZM131.306 31.632C131.306 32.208 131.27 32.808 131.198 33.432H117.266C117.362 34.68 117.758 35.64 118.454 36.312C119.174 36.96 120.05 37.284 121.082 37.284C122.618 37.284 123.686 36.636 124.286 35.34H130.838C130.502 36.66 129.89 37.848 129.002 38.904C128.138 39.96 127.046 40.788 125.726 41.388C124.406 41.988 122.93 42.288 121.298 42.288C119.33 42.288 117.578 41.868 116.042 41.028C114.506 40.188 113.306 38.988 112.442 37.428C111.578 35.868 111.146 34.044 111.146 31.956C111.146 29.868 111.566 28.044 112.406 26.484C113.27 24.924 114.47 23.724 116.006 22.884C117.542 22.044 119.306 21.624 121.298 21.624C123.242 21.624 124.97 22.032 126.482 22.848C127.994 23.664 129.17 24.828 130.01 26.34C130.874 27.852 131.306 29.616 131.306 31.632ZM125.006 30.012C125.006 28.956 124.646 28.116 123.926 27.492C123.206 26.868 122.306 26.556 121.226 26.556C120.194 26.556 119.318 26.856 118.598 27.456C117.902 28.056 117.47 28.908 117.302 30.012H125.006Z" fill="white"/>
<path d="M54.848 30.072V75H43.904V48.056L33.856 75H25.024L14.912 47.992V75H3.968V30.072H16.896L29.504 61.176L41.984 30.072H54.848ZM69.934 41.304V75H61.726V41.304H69.934ZM92.2023 47.928C95.3383 47.928 97.8343 48.952 99.6903 51C101.578 53.016 102.522 55.8 102.522 59.352V75H94.3623V60.456C94.3623 58.664 93.8983 57.272 92.9703 56.28C92.0423 55.288 90.7943 54.792 89.2263 54.792C87.6583 54.792 86.4103 55.288 85.4823 56.28C84.5543 57.272 84.0903 58.664 84.0903 60.456V75H75.8823V48.216H84.0903V51.768C84.9223 50.584 86.0423 49.656 87.4503 48.984C88.8583 48.28 90.4423 47.928 92.2023 47.928ZM106.594 61.56C106.594 58.808 107.106 56.392 108.13 54.312C109.186 52.232 110.61 50.632 112.402 49.512C114.194 48.392 116.194 47.832 118.402 47.832C120.29 47.832 121.938 48.216 123.346 48.984C124.786 49.752 125.89 50.76 126.658 52.008V48.216H134.866V75H126.658V71.208C125.858 72.456 124.738 73.464 123.298 74.232C121.89 75 120.242 75.384 118.354 75.384C116.178 75.384 114.194 74.824 112.402 73.704C110.61 72.552 109.186 70.936 108.13 68.856C107.106 66.744 106.594 64.312 106.594 61.56ZM126.658 61.608C126.658 59.56 126.082 57.944 124.93 56.76C123.81 55.576 122.434 54.984 120.802 54.984C119.17 54.984 117.778 55.576 116.626 56.76C115.506 57.912 114.946 59.512 114.946 61.56C114.946 63.608 115.506 65.24 116.626 66.456C117.778 67.64 119.17 68.232 120.802 68.232C122.434 68.232 123.81 67.64 124.93 66.456C126.082 65.272 126.658 63.656 126.658 61.608ZM149.012 52.68C149.972 51.208 151.172 50.056 152.612 49.224C154.052 48.36 155.652 47.928 157.412 47.928V56.616H155.156C153.108 56.616 151.572 57.064 150.548 57.96C149.524 58.824 149.012 60.36 149.012 62.568V75H140.804V48.216H149.012V52.68ZM186.583 61.176C186.583 61.944 186.535 62.744 186.439 63.576H167.863C167.991 65.24 168.519 66.52 169.447 67.416C170.407 68.28 171.575 68.712 172.951 68.712C174.999 68.712 176.423 67.848 177.223 66.12H185.959C185.511 67.88 184.695 69.464 183.511 70.872C182.359 72.28 180.903 73.384 179.143 74.184C177.383 74.984 175.415 75.384 173.239 75.384C170.615 75.384 168.279 74.824 166.231 73.704C164.183 72.584 162.583 70.984 161.431 68.904C160.279 66.824 159.703 64.392 159.703 61.608C159.703 58.824 160.263 56.392 161.383 54.312C162.535 52.232 164.135 50.632 166.183 49.512C168.231 48.392 170.583 47.832 173.239 47.832C175.831 47.832 178.135 48.376 180.151 49.464C182.167 50.552 183.735 52.104 184.855 54.12C186.007 56.136 186.583 58.488 186.583 61.176ZM178.183 59.016C178.183 57.608 177.703 56.488 176.743 55.656C175.783 54.824 174.583 54.408 173.143 54.408C171.767 54.408 170.599 54.808 169.639 55.608C168.711 56.408 168.135 57.544 167.911 59.016H178.183ZM205.842 68.04V75H201.666C198.69 75 196.37 74.28 194.706 72.84C193.042 71.368 192.21 68.984 192.21 65.688V55.032H188.946V48.216H192.21V41.688H200.418V48.216H205.794V55.032H200.418V65.784C200.418 66.584 200.61 67.16 200.994 67.512C201.378 67.864 202.018 68.04 202.914 68.04H205.842Z" fill="white"/>
<path d="M62.7789 30C62.0915 37.1442 69.9932 36.4322 71 35.3633C71 35.3633 69.5236 38.1322 67.6462 38.6726C66.4561 39.0152 65.686 39.0848 64.456 38.9008C59.3863 38.1425 60.8701 30.3408 62.7789 30Z" fill="#FBBF86"/>
</svg>
