<svg width="49" height="35" viewBox="0 0 49 35" fill="none" xmlns="http://www.w3.org/2000/svg">
<path d="M3.036 28.818V29.262H1.896V33H1.35V29.262H0.204V28.818H3.036ZM6.70809 31.23C6.70809 31.334 6.70209 31.444 6.69009 31.56H4.06209C4.08209 31.884 4.19209 32.138 4.39209 32.322C4.59609 32.502 4.84209 32.592 5.13009 32.592C5.36609 32.592 5.56209 32.538 5.71809 32.43C5.87809 32.318 5.99009 32.17 6.05409 31.986H6.64209C6.55409 32.302 6.37809 32.56 6.11409 32.76C5.85009 32.956 5.52209 33.054 5.13009 33.054C4.81809 33.054 4.53809 32.984 4.29009 32.844C4.04609 32.704 3.85409 32.506 3.71409 32.25C3.57409 31.99 3.50409 31.69 3.50409 31.35C3.50409 31.01 3.57209 30.712 3.70809 30.456C3.84409 30.2 4.03409 30.004 4.27809 29.868C4.52609 29.728 4.81009 29.658 5.13009 29.658C5.44209 29.658 5.71809 29.726 5.95809 29.862C6.19809 29.998 6.38209 30.186 6.51009 30.426C6.64209 30.662 6.70809 30.93 6.70809 31.23ZM6.14409 31.116C6.14409 30.908 6.09809 30.73 6.00609 30.582C5.91409 30.43 5.78809 30.316 5.62809 30.24C5.47209 30.16 5.29809 30.12 5.10609 30.12C4.83009 30.12 4.59409 30.208 4.39809 30.384C4.20609 30.56 4.09609 30.804 4.06809 31.116H6.14409ZM7.2248 31.344C7.2248 31.008 7.2928 30.714 7.4288 30.462C7.5648 30.206 7.7508 30.008 7.9868 29.868C8.2268 29.728 8.4928 29.658 8.7848 29.658C9.0728 29.658 9.3228 29.72 9.5348 29.844C9.7468 29.968 9.9048 30.124 10.0088 30.312V29.712H10.5608V33H10.0088V32.388C9.9008 32.58 9.7388 32.74 9.5228 32.868C9.3108 32.992 9.0628 33.054 8.7788 33.054C8.4868 33.054 8.2228 32.982 7.9868 32.838C7.7508 32.694 7.5648 32.492 7.4288 32.232C7.2928 31.972 7.2248 31.676 7.2248 31.344ZM10.0088 31.35C10.0088 31.102 9.9588 30.886 9.8588 30.702C9.7588 30.518 9.6228 30.378 9.4508 30.282C9.2828 30.182 9.0968 30.132 8.8928 30.132C8.6888 30.132 8.5028 30.18 8.3348 30.276C8.1668 30.372 8.0328 30.512 7.9328 30.696C7.8328 30.88 7.7828 31.096 7.7828 31.344C7.7828 31.596 7.8328 31.816 7.9328 32.004C8.0328 32.188 8.1668 32.33 8.3348 32.43C8.5028 32.526 8.6888 32.574 8.8928 32.574C9.0968 32.574 9.2828 32.526 9.4508 32.43C9.6228 32.33 9.7588 32.188 9.8588 32.004C9.9588 31.816 10.0088 31.598 10.0088 31.35ZM11.2795 31.35C11.2795 31.01 11.3475 30.714 11.4835 30.462C11.6195 30.206 11.8075 30.008 12.0475 29.868C12.2915 29.728 12.5695 29.658 12.8815 29.658C13.2855 29.658 13.6175 29.756 13.8775 29.952C14.1415 30.148 14.3155 30.42 14.3995 30.768H13.8115C13.7555 30.568 13.6455 30.41 13.4815 30.294C13.3215 30.178 13.1215 30.12 12.8815 30.12C12.5695 30.12 12.3175 30.228 12.1255 30.444C11.9335 30.656 11.8375 30.958 11.8375 31.35C11.8375 31.746 11.9335 32.052 12.1255 32.268C12.3175 32.484 12.5695 32.592 12.8815 32.592C13.1215 32.592 13.3215 32.536 13.4815 32.424C13.6415 32.312 13.7515 32.152 13.8115 31.944H14.3995C14.3115 32.28 14.1355 32.55 13.8715 32.754C13.6075 32.954 13.2775 33.054 12.8815 33.054C12.5695 33.054 12.2915 32.984 12.0475 32.844C11.8075 32.704 11.6195 32.506 11.4835 32.25C11.3475 31.994 11.2795 31.694 11.2795 31.35ZM16.76 29.652C17.008 29.652 17.232 29.706 17.432 29.814C17.632 29.918 17.788 30.076 17.9 30.288C18.016 30.5 18.074 30.758 18.074 31.062V33H17.534V31.14C17.534 30.812 17.452 30.562 17.288 30.39C17.124 30.214 16.9 30.126 16.616 30.126C16.328 30.126 16.098 30.216 15.926 30.396C15.758 30.576 15.674 30.838 15.674 31.182V33H15.128V28.56H15.674V30.18C15.782 30.012 15.93 29.882 16.118 29.79C16.31 29.698 16.524 29.652 16.76 29.652ZM19.2479 29.178C19.1439 29.178 19.0559 29.142 18.9839 29.07C18.9119 28.998 18.8759 28.91 18.8759 28.806C18.8759 28.702 18.9119 28.614 18.9839 28.542C19.0559 28.47 19.1439 28.434 19.2479 28.434C19.3479 28.434 19.4319 28.47 19.4999 28.542C19.5719 28.614 19.6079 28.702 19.6079 28.806C19.6079 28.91 19.5719 28.998 19.4999 29.07C19.4319 29.142 19.3479 29.178 19.2479 29.178ZM19.5119 29.712V33H18.9659V29.712H19.5119ZM22.0445 29.652C22.4445 29.652 22.7685 29.774 23.0165 30.018C23.2645 30.258 23.3885 30.606 23.3885 31.062V33H22.8485V31.14C22.8485 30.812 22.7665 30.562 22.6025 30.39C22.4385 30.214 22.2145 30.126 21.9305 30.126C21.6425 30.126 21.4125 30.216 21.2405 30.396C21.0725 30.576 20.9885 30.838 20.9885 31.182V33H20.4425V29.712H20.9885V30.18C21.0965 30.012 21.2425 29.882 21.4265 29.79C21.6145 29.698 21.8205 29.652 22.0445 29.652ZM25.6364 29.658C25.9204 29.658 26.1684 29.72 26.3804 29.844C26.5964 29.968 26.7564 30.124 26.8604 30.312V29.712H27.4124V33.072C27.4124 33.372 27.3484 33.638 27.2204 33.87C27.0924 34.106 26.9084 34.29 26.6684 34.422C26.4324 34.554 26.1564 34.62 25.8404 34.62C25.4084 34.62 25.0484 34.518 24.7604 34.314C24.4724 34.11 24.3024 33.832 24.2504 33.48H24.7904C24.8504 33.68 24.9744 33.84 25.1624 33.96C25.3504 34.084 25.5764 34.146 25.8404 34.146C26.1404 34.146 26.3844 34.052 26.5724 33.864C26.7644 33.676 26.8604 33.412 26.8604 33.072V32.382C26.7524 32.574 26.5924 32.734 26.3804 32.862C26.1684 32.99 25.9204 33.054 25.6364 33.054C25.3444 33.054 25.0784 32.982 24.8384 32.838C24.6024 32.694 24.4164 32.492 24.2804 32.232C24.1444 31.972 24.0764 31.676 24.0764 31.344C24.0764 31.008 24.1444 30.714 24.2804 30.462C24.4164 30.206 24.6024 30.008 24.8384 29.868C25.0784 29.728 25.3444 29.658 25.6364 29.658ZM26.8604 31.35C26.8604 31.102 26.8104 30.886 26.7104 30.702C26.6104 30.518 26.4744 30.378 26.3024 30.282C26.1344 30.182 25.9484 30.132 25.7444 30.132C25.5404 30.132 25.3544 30.18 25.1864 30.276C25.0184 30.372 24.8844 30.512 24.7844 30.696C24.6844 30.88 24.6344 31.096 24.6344 31.344C24.6344 31.596 24.6844 31.816 24.7844 32.004C24.8844 32.188 25.0184 32.33 25.1864 32.43C25.3544 32.526 25.5404 32.574 25.7444 32.574C25.9484 32.574 26.1344 32.526 26.3024 32.43C26.4744 32.33 26.6104 32.188 26.7104 32.004C26.8104 31.816 26.8604 31.598 26.8604 31.35ZM33.2887 33.792L32.4547 32.958C32.2507 33.014 32.0427 33.042 31.8307 33.042C31.4427 33.042 31.0887 32.952 30.7687 32.772C30.4487 32.588 30.1947 32.334 30.0067 32.01C29.8227 31.682 29.7307 31.314 29.7307 30.906C29.7307 30.498 29.8227 30.132 30.0067 29.808C30.1947 29.48 30.4487 29.226 30.7687 29.046C31.0887 28.862 31.4427 28.77 31.8307 28.77C32.2227 28.77 32.5787 28.862 32.8987 29.046C33.2187 29.226 33.4707 29.478 33.6547 29.802C33.8387 30.126 33.9307 30.494 33.9307 30.906C33.9307 31.306 33.8427 31.666 33.6667 31.986C33.4907 32.306 33.2487 32.558 32.9407 32.742L33.9967 33.792H33.2887ZM30.2887 30.906C30.2887 31.238 30.3547 31.53 30.4867 31.782C30.6227 32.034 30.8067 32.228 31.0387 32.364C31.2747 32.5 31.5387 32.568 31.8307 32.568C32.1227 32.568 32.3847 32.5 32.6167 32.364C32.8527 32.228 33.0367 32.034 33.1687 31.782C33.3047 31.53 33.3727 31.238 33.3727 30.906C33.3727 30.57 33.3047 30.278 33.1687 30.03C33.0367 29.778 32.8547 29.584 32.6227 29.448C32.3907 29.312 32.1267 29.244 31.8307 29.244C31.5347 29.244 31.2707 29.312 31.0387 29.448C30.8067 29.584 30.6227 29.778 30.4867 30.03C30.3547 30.278 30.2887 30.57 30.2887 30.906ZM37.5792 29.712V33H37.0332V32.514C36.9292 32.682 36.7832 32.814 36.5952 32.91C36.4112 33.002 36.2072 33.048 35.9832 33.048C35.7272 33.048 35.4972 32.996 35.2932 32.892C35.0892 32.784 34.9272 32.624 34.8072 32.412C34.6912 32.2 34.6332 31.942 34.6332 31.638V29.712H35.1732V31.566C35.1732 31.89 35.2552 32.14 35.4192 32.316C35.5832 32.488 35.8072 32.574 36.0912 32.574C36.3832 32.574 36.6132 32.484 36.7812 32.304C36.9492 32.124 37.0332 31.862 37.0332 31.518V29.712H37.5792ZM39.0471 30.246C39.1431 30.058 39.2791 29.912 39.4551 29.808C39.6351 29.704 39.8531 29.652 40.1091 29.652V30.216H39.9651C39.3531 30.216 39.0471 30.548 39.0471 31.212V33H38.5011V29.712H39.0471V30.246ZM40.5353 31.344C40.5353 31.008 40.6033 30.714 40.7393 30.462C40.8753 30.206 41.0613 30.008 41.2973 29.868C41.5373 29.728 41.8033 29.658 42.0953 29.658C42.3833 29.658 42.6333 29.72 42.8453 29.844C43.0573 29.968 43.2153 30.124 43.3193 30.312V29.712H43.8713V33H43.3193V32.388C43.2113 32.58 43.0493 32.74 42.8333 32.868C42.6213 32.992 42.3733 33.054 42.0893 33.054C41.7973 33.054 41.5333 32.982 41.2973 32.838C41.0613 32.694 40.8753 32.492 40.7393 32.232C40.6033 31.972 40.5353 31.676 40.5353 31.344ZM43.3193 31.35C43.3193 31.102 43.2693 30.886 43.1693 30.702C43.0693 30.518 42.9333 30.378 42.7613 30.282C42.5933 30.182 42.4073 30.132 42.2033 30.132C41.9993 30.132 41.8133 30.18 41.6453 30.276C41.4773 30.372 41.3433 30.512 41.2433 30.696C41.1433 30.88 41.0933 31.096 41.0933 31.344C41.0933 31.596 41.1433 31.816 41.2433 32.004C41.3433 32.188 41.4773 32.33 41.6453 32.43C41.8133 32.526 41.9993 32.574 42.2033 32.574C42.4073 32.574 42.5933 32.526 42.7613 32.43C42.9333 32.33 43.0693 32.188 43.1693 32.004C43.2693 31.816 43.3193 31.598 43.3193 31.35ZM46.396 29.652C46.796 29.652 47.12 29.774 47.368 30.018C47.616 30.258 47.74 30.606 47.74 31.062V33H47.2V31.14C47.2 30.812 47.118 30.562 46.954 30.39C46.79 30.214 46.566 30.126 46.282 30.126C45.994 30.126 45.764 30.216 45.592 30.396C45.424 30.576 45.34 30.838 45.34 31.182V33H44.794V29.712H45.34V30.18C45.448 30.012 45.594 29.882 45.778 29.79C45.966 29.698 46.172 29.652 46.396 29.652Z" fill="white" fill-opacity="0.3"/>
<path d="M24.6732 8.03618C24.5153 8.03618 24.3733 7.94047 24.3146 7.79381C22.8242 4.0669 18.5562 3.35564 16.5054 3.0137C14.8459 2.73738 12.0672 1.51283 10.5551 0.807738C10.4366 0.750235 10.2969 0.759497 10.1866 0.83128C10.0743 0.901519 10.0063 1.0254 10.0079 1.15816V4.94875H9.23602V1.15816C9.23602 0.518678 9.75432 0.000376363 10.3938 0.000376363C10.5625 0.000376363 10.7288 0.0370393 10.8816 0.10805C12.3563 0.796932 15.0643 1.99099 16.632 2.25265C18.6797 2.59459 22.796 3.27961 24.6732 6.74177C26.5503 3.27961 30.6666 2.59459 32.7144 2.25265C34.282 1.99099 36.9901 0.796932 38.4647 0.10805C39.0447 -0.161328 39.7332 0.0902977 40.0026 0.670348C40.0736 0.823176 40.1103 0.989511 40.1103 1.15816V4.94875H39.3384V1.15816C39.3384 0.945129 39.1655 0.772233 38.9525 0.772233C38.8969 0.772233 38.8417 0.784196 38.7912 0.807738C37.281 1.51283 34.4997 2.73738 32.8409 3.0137C30.7901 3.35564 26.5221 4.0669 25.0317 7.79381C24.973 7.94047 24.831 8.03618 24.6732 8.03618Z" fill="white" fill-opacity="0.3"/>
<path d="M24.6734 11.1237C24.6248 11.1237 24.5769 11.1149 24.5318 11.0967L8.99237 4.95351C8.79401 4.87517 8.56978 4.97204 8.49144 5.17041C8.47368 5.21556 8.46442 5.26342 8.46442 5.31204V5.72074H7.69257V5.31204C7.69295 4.67256 8.21164 4.15464 8.85112 4.15503C8.99623 4.15503 9.1398 4.18243 9.27487 4.23569L24.6734 10.3229L40.072 4.2353C40.6667 4.00066 41.3393 4.29319 41.5736 4.88791C41.6269 5.02298 41.6543 5.16693 41.6543 5.31204V5.72074H40.8824V5.31204C40.8824 5.09901 40.7095 4.92611 40.4965 4.92611C40.4478 4.92611 40.4 4.93538 40.3548 4.95313L24.8151 11.0967C24.7699 11.1149 24.722 11.1237 24.6734 11.1237Z" fill="white" fill-opacity="0.3"/>
<path d="M24.6733 15.3694C24.6227 15.3694 24.5726 15.3593 24.5259 15.34L7.25018 8.20462C6.8164 8.02632 6.53351 7.60334 6.53467 7.13444V6.48917C6.53467 5.84968 7.05297 5.33138 7.69207 5.331C7.84374 5.331 7.99425 5.36071 8.13473 5.41899L24.6733 12.2491L41.2119 5.41822C41.8027 5.17392 42.48 5.45488 42.7239 6.04574C42.7822 6.1866 42.8119 6.33711 42.8119 6.48917V7.13444C42.8131 7.60334 42.5302 8.02632 42.0964 8.20462L24.8207 15.34C24.774 15.3593 24.7239 15.3694 24.6733 15.3694ZM7.69246 6.10247C7.47942 6.10247 7.30653 6.27536 7.30653 6.48839V7.13367C7.30653 7.28997 7.40069 7.43045 7.54503 7.49027L24.6733 14.5659L41.8016 7.49104C41.9459 7.43122 42.0401 7.29074 42.0401 7.13444V6.48917C42.0401 6.27614 41.8676 6.10324 41.6545 6.10285C41.604 6.10285 41.5538 6.11289 41.5067 6.13218L24.8207 13.0233C24.7262 13.0619 24.6204 13.0619 24.5259 13.0233L7.83988 6.13218C7.79318 6.11289 7.74301 6.10285 7.69246 6.10247Z" fill="white" fill-opacity="0.3"/>
<path d="M15.4185 20H11.5064C11.0799 20 10.7345 19.6546 10.7341 19.2286C10.7341 18.9472 10.887 18.6883 11.1332 18.5524L21.0129 13.1016L21.3858 13.7769L11.5064 19.2282H15.4185C15.6049 19.2278 15.7882 19.1826 15.9538 19.097L24.4944 14.6406L24.8518 15.3253L16.3108 19.7812C16.0352 19.9244 15.7292 19.9996 15.4185 20Z" fill="white" fill-opacity="0.3"/>
<path d="M37.8402 20H33.928C33.6173 19.9996 33.3117 19.9248 33.0361 19.7812L24.4948 15.3253L24.8521 14.6406L33.3931 19.097C33.5583 19.183 33.7416 19.2278 33.928 19.2282H37.8402L27.9604 13.7769L28.3332 13.1016L38.213 18.5524C38.5862 18.7585 38.7216 19.2278 38.5159 19.601C38.3801 19.8472 38.1211 20 37.8402 20Z" fill="white" fill-opacity="0.3"/>
</svg>
