<svg width="365" height="18" viewBox="0 0 365 18" fill="none" xmlns="http://www.w3.org/2000/svg">
<path d="M1 9L73 8.99999" stroke="#FAB863" stroke-width="1.5" stroke-linecap="round"/>
<path fill-rule="evenodd" clip-rule="evenodd" d="M79 9.12698L81.5397 7.34921V3.53968H84.8413L86.873 1L88.9048 3.53968H92.4603V7.34921L95 9.12698L92.4603 10.3968V14.4603H88.9048L86.873 17L84.8413 14.4603H81.5397V11.1587L79 9.12698ZM85.6032 6.07937L86.873 4.30159L88.3968 6.07937H89.9206V7.85714L91.6984 9.12698L89.9206 9.88889V11.9206H88.3968L86.873 13.6984L85.6032 11.9206H84.0794V9.88889L82.3016 9.12698L84.0794 7.85714V6.07937H85.6032Z" fill="#FAB863"/>
<path d="M364 9L292 9" stroke="#FAB863" stroke-width="1.5" stroke-linecap="round"/>
<path fill-rule="evenodd" clip-rule="evenodd" d="M286 9.12698L283.46 7.34921V3.53968H280.159L278.127 1L276.095 3.53968H272.54V7.34921L270 9.12698L272.54 10.3968V14.4603H276.095L278.127 17L280.159 14.4603H283.46V11.1587L286 9.12698ZM279.397 6.07937L278.127 4.30159L276.603 6.07937H275.079V7.85714L273.302 9.12698L275.079 9.88889V11.9206H276.603L278.127 13.6984L279.397 11.9206H280.921V9.88889L282.698 9.12698L280.921 7.85714V6.07937H279.397Z" fill="#FAB863"/>
<path d="M113.805 15H112.455V4.29H118.44V5.475H113.805V9.27H118.155V10.455H113.805V15ZM130.328 9.63C130.328 10.46 130.223 11.215 130.013 11.895C129.803 12.565 129.488 13.145 129.068 13.635C128.658 14.125 128.143 14.5 127.523 14.76C126.913 15.02 126.203 15.15 125.393 15.15C124.553 15.15 123.823 15.02 123.203 14.76C122.583 14.49 122.068 14.115 121.658 13.635C121.248 13.145 120.943 12.56 120.743 11.88C120.543 11.2 120.443 10.445 120.443 9.615C120.443 8.515 120.623 7.555 120.983 6.735C121.343 5.915 121.888 5.275 122.618 4.815C123.358 4.355 124.288 4.125 125.408 4.125C126.478 4.125 127.378 4.355 128.108 4.815C128.838 5.265 129.388 5.905 129.758 6.735C130.138 7.555 130.328 8.52 130.328 9.63ZM121.868 9.63C121.868 10.53 121.993 11.305 122.243 11.955C122.493 12.605 122.878 13.105 123.398 13.455C123.928 13.805 124.593 13.98 125.393 13.98C126.203 13.98 126.863 13.805 127.373 13.455C127.893 13.105 128.278 12.605 128.528 11.955C128.778 11.305 128.903 10.53 128.903 9.63C128.903 8.28 128.623 7.225 128.063 6.465C127.503 5.695 126.618 5.31 125.408 5.31C124.598 5.31 123.928 5.485 123.398 5.835C122.878 6.175 122.493 6.67 122.243 7.32C121.993 7.96 121.868 8.73 121.868 9.63ZM136.407 4.29C137.297 4.29 138.027 4.405 138.597 4.635C139.177 4.855 139.607 5.19 139.887 5.64C140.167 6.09 140.307 6.655 140.307 7.335C140.307 7.905 140.202 8.38 139.992 8.76C139.782 9.14 139.512 9.445 139.182 9.675C138.862 9.895 138.522 10.07 138.162 10.2L141.102 15H139.527L136.932 10.575H134.802V15H133.452V4.29H136.407ZM136.332 5.46H134.802V9.435H136.407C136.987 9.435 137.462 9.36 137.832 9.21C138.202 9.05 138.472 8.82 138.642 8.52C138.822 8.22 138.912 7.845 138.912 7.395C138.912 6.925 138.817 6.55 138.627 6.27C138.447 5.99 138.167 5.785 137.787 5.655C137.407 5.525 136.922 5.46 136.332 5.46ZM146.923 15H145.573V5.475H142.228V4.29H150.253V5.475H146.923V15ZM155.633 15H151.763V14.22L153.023 13.935V5.37L151.763 5.07V4.29H155.633V5.07L154.373 5.37V13.935L155.633 14.22V15ZM159.801 15H158.451V4.29H164.436V5.475H159.801V9.27H164.151V10.455H159.801V15ZM169.769 9.555L172.559 4.29H174.014L170.444 10.845V15H169.094V10.905L165.524 4.29H166.994L169.769 9.555ZM179.241 15H175.371V14.22L176.631 13.935V5.37L175.371 5.07V4.29H179.241V5.07L177.981 5.37V13.935L179.241 14.22V15ZM190.549 15H188.974L183.244 6.105H183.184C183.194 6.285 183.204 6.485 183.214 6.705C183.234 6.925 183.249 7.165 183.259 7.425C183.269 7.675 183.279 7.935 183.289 8.205C183.299 8.475 183.304 8.745 183.304 9.015V15H182.059V4.29H183.619L189.334 13.155H189.394C189.384 13.035 189.374 12.87 189.364 12.66C189.354 12.44 189.344 12.2 189.334 11.94C189.324 11.67 189.314 11.395 189.304 11.115C189.294 10.835 189.289 10.575 189.289 10.335V4.29H190.549V15ZM198.855 9.345H202.56V14.595C201.98 14.785 201.395 14.925 200.805 15.015C200.215 15.105 199.545 15.15 198.795 15.15C197.685 15.15 196.75 14.93 195.99 14.49C195.23 14.04 194.65 13.405 194.25 12.585C193.86 11.755 193.665 10.775 193.665 9.645C193.665 8.525 193.885 7.555 194.325 6.735C194.765 5.915 195.395 5.28 196.215 4.83C197.045 4.37 198.045 4.14 199.215 4.14C199.815 4.14 200.38 4.195 200.91 4.305C201.45 4.415 201.95 4.57 202.41 4.77L201.9 5.94C201.52 5.77 201.09 5.625 200.61 5.505C200.14 5.385 199.65 5.325 199.14 5.325C198.29 5.325 197.56 5.5 196.95 5.85C196.34 6.2 195.875 6.7 195.555 7.35C195.235 7.99 195.075 8.755 195.075 9.645C195.075 10.495 195.21 11.25 195.48 11.91C195.76 12.56 196.195 13.07 196.785 13.44C197.375 13.8 198.15 13.98 199.11 13.98C199.43 13.98 199.71 13.97 199.95 13.95C200.2 13.92 200.425 13.885 200.625 13.845C200.835 13.805 201.03 13.765 201.21 13.725V10.545H198.855V9.345ZM211.865 15H210.515V4.29H216.5V5.475H211.865V9.27H216.215V10.455H211.865V15ZM225.47 15L224.18 11.685H219.935L218.66 15H217.295L221.48 4.245H222.695L226.865 15H225.47ZM222.575 7.245C222.545 7.165 222.495 7.02 222.425 6.81C222.355 6.6 222.285 6.385 222.215 6.165C222.155 5.935 222.105 5.76 222.065 5.64C222.015 5.84 221.96 6.045 221.9 6.255C221.85 6.455 221.795 6.64 221.735 6.81C221.685 6.98 221.64 7.125 221.6 7.245L220.385 10.485H223.775L222.575 7.245ZM232.095 15H228.225V14.22L229.485 13.935V5.37L228.225 5.07V4.29H232.095V5.07L230.835 5.37V13.935L232.095 14.22V15ZM238.303 15H236.953V5.475H233.608V4.29H241.633V5.475H238.303V15ZM252.188 15H250.838V10.005H245.348V15H243.998V4.29H245.348V8.82H250.838V4.29H252.188V15Z" fill="#FAB863"/>
</svg>
