<svg width="23" height="40" viewBox="0 0 23 40" fill="none" xmlns="http://www.w3.org/2000/svg">
<path d="M1.788 38.042C1.512 38.042 1.264 37.994 1.044 37.898C0.828 37.798 0.658 37.662 0.534 37.49C0.41 37.314 0.346 37.112 0.342 36.884H0.924C0.944 37.08 1.024 37.246 1.164 37.382C1.308 37.514 1.516 37.58 1.788 37.58C2.048 37.58 2.252 37.516 2.4 37.388C2.552 37.256 2.628 37.088 2.628 36.884C2.628 36.724 2.584 36.594 2.496 36.494C2.408 36.394 2.298 36.318 2.166 36.266C2.034 36.214 1.856 36.158 1.632 36.098C1.356 36.026 1.134 35.954 0.966 35.882C0.802 35.81 0.66 35.698 0.54 35.546C0.424 35.39 0.366 35.182 0.366 34.922C0.366 34.694 0.424 34.492 0.54 34.316C0.656 34.14 0.818 34.004 1.026 33.908C1.238 33.812 1.48 33.764 1.752 33.764C2.144 33.764 2.464 33.862 2.712 34.058C2.964 34.254 3.106 34.514 3.138 34.838H2.538C2.518 34.678 2.434 34.538 2.286 34.418C2.138 34.294 1.942 34.232 1.698 34.232C1.47 34.232 1.284 34.292 1.14 34.412C0.996 34.528 0.924 34.692 0.924 34.904C0.924 35.056 0.966 35.18 1.05 35.276C1.138 35.372 1.244 35.446 1.368 35.498C1.496 35.546 1.674 35.602 1.902 35.666C2.178 35.742 2.4 35.818 2.568 35.894C2.736 35.966 2.88 36.08 3 36.236C3.12 36.388 3.18 36.596 3.18 36.86C3.18 37.064 3.126 37.256 3.018 37.436C2.91 37.616 2.75 37.762 2.538 37.874C2.326 37.986 2.076 38.042 1.788 38.042ZM6.89948 34.712V38H6.35348V37.514C6.24948 37.682 6.10348 37.814 5.91548 37.91C5.73148 38.002 5.52748 38.048 5.30348 38.048C5.04748 38.048 4.81748 37.996 4.61348 37.892C4.40948 37.784 4.24748 37.624 4.12748 37.412C4.01148 37.2 3.95348 36.942 3.95348 36.638V34.712H4.49348V36.566C4.49348 36.89 4.57548 37.14 4.73948 37.316C4.90348 37.488 5.12748 37.574 5.41148 37.574C5.70348 37.574 5.93348 37.484 6.10148 37.304C6.26948 37.124 6.35348 36.862 6.35348 36.518V34.712H6.89948ZM9.42338 34.652C9.82338 34.652 10.1474 34.774 10.3954 35.018C10.6434 35.258 10.7674 35.606 10.7674 36.062V38H10.2274V36.14C10.2274 35.812 10.1454 35.562 9.98138 35.39C9.81738 35.214 9.59338 35.126 9.30938 35.126C9.02138 35.126 8.79138 35.216 8.61938 35.396C8.45138 35.576 8.36738 35.838 8.36738 36.182V38H7.82138V34.712H8.36738V35.18C8.47538 35.012 8.62138 34.882 8.80538 34.79C8.99338 34.698 9.19938 34.652 9.42338 34.652ZM13.2613 34.652C13.6613 34.652 13.9853 34.774 14.2333 35.018C14.4813 35.258 14.6053 35.606 14.6053 36.062V38H14.0653V36.14C14.0653 35.812 13.9833 35.562 13.8193 35.39C13.6553 35.214 13.4313 35.126 13.1473 35.126C12.8593 35.126 12.6293 35.216 12.4573 35.396C12.2893 35.576 12.2053 35.838 12.2053 36.182V38H11.6593V34.712H12.2053V35.18C12.3133 35.012 12.4593 34.882 12.6433 34.79C12.8313 34.698 13.0373 34.652 13.2613 34.652ZM15.2932 36.344C15.2932 36.008 15.3612 35.714 15.4972 35.462C15.6332 35.206 15.8192 35.008 16.0552 34.868C16.2952 34.728 16.5612 34.658 16.8532 34.658C17.1412 34.658 17.3912 34.72 17.6032 34.844C17.8152 34.968 17.9732 35.124 18.0772 35.312V34.712H18.6292V38H18.0772V37.388C17.9692 37.58 17.8072 37.74 17.5912 37.868C17.3792 37.992 17.1312 38.054 16.8472 38.054C16.5552 38.054 16.2912 37.982 16.0552 37.838C15.8192 37.694 15.6332 37.492 15.4972 37.232C15.3612 36.972 15.2932 36.676 15.2932 36.344ZM18.0772 36.35C18.0772 36.102 18.0272 35.886 17.9272 35.702C17.8272 35.518 17.6912 35.378 17.5192 35.282C17.3512 35.182 17.1652 35.132 16.9612 35.132C16.7572 35.132 16.5712 35.18 16.4032 35.276C16.2352 35.372 16.1012 35.512 16.0012 35.696C15.9012 35.88 15.8512 36.096 15.8512 36.344C15.8512 36.596 15.9012 36.816 16.0012 37.004C16.1012 37.188 16.2352 37.33 16.4032 37.43C16.5712 37.526 16.7572 37.574 16.9612 37.574C17.1652 37.574 17.3512 37.526 17.5192 37.43C17.6912 37.33 17.8272 37.188 17.9272 37.004C18.0272 36.816 18.0772 36.598 18.0772 36.35ZM21.1838 34.652C21.4318 34.652 21.6558 34.706 21.8558 34.814C22.0558 34.918 22.2118 35.076 22.3238 35.288C22.4398 35.5 22.4978 35.758 22.4978 36.062V38H21.9578V36.14C21.9578 35.812 21.8758 35.562 21.7118 35.39C21.5478 35.214 21.3238 35.126 21.0398 35.126C20.7518 35.126 20.5218 35.216 20.3498 35.396C20.1818 35.576 20.0978 35.838 20.0978 36.182V38H19.5518V33.56H20.0978V35.18C20.2058 35.012 20.3538 34.882 20.5418 34.79C20.7338 34.698 20.9478 34.652 21.1838 34.652Z" fill="white" fill-opacity="0.3"/>
<path d="M15.5 3.44828C15.1036 3.44883 14.711 3.37117 14.3447 3.21974C13.9784 3.0683 13.6455 2.84608 13.3652 2.56579C13.085 2.2855 12.8627 1.95266 12.7113 1.58634C12.5599 1.22002 12.4822 0.827421 12.4828 0.431034C12.4828 0.316717 12.4373 0.207082 12.3565 0.126247C12.2757 0.0454124 12.166 0 12.0517 0C11.9374 0 11.8278 0.0454124 11.7469 0.126247C11.6661 0.207082 11.6207 0.316717 11.6207 0.431034C11.6197 1.23096 11.3015 1.99784 10.7359 2.56348C10.1703 3.12911 9.40337 3.44731 8.60345 3.44828C7.11797 3.45037 5.69393 4.04141 4.64353 5.0918C3.59313 6.1422 3.0021 7.56624 3 9.05172V17.6724C3 17.7867 3.04541 17.8964 3.12625 17.9772C3.20708 18.058 3.31672 18.1034 3.43103 18.1034C3.54535 18.1034 3.65499 18.058 3.73582 17.9772C3.81666 17.8964 3.86207 17.7867 3.86207 17.6724V14.6552H20.2414V24.1379H3.86207V21.1207C3.86207 21.0064 3.81666 20.8967 3.73582 20.8159C3.65499 20.7351 3.54535 20.6897 3.43103 20.6897C3.31672 20.6897 3.20708 20.7351 3.12625 20.8159C3.04541 20.8967 3 21.0064 3 21.1207V24.569C2.99997 24.6256 3.01109 24.6816 3.03274 24.734C3.05439 24.7863 3.08614 24.8338 3.12617 24.8738C3.16621 24.9139 3.21374 24.9456 3.26605 24.9673C3.31836 24.9889 3.37442 25 3.43103 25H20.6724C20.729 25 20.7851 24.9889 20.8374 24.9673C20.8897 24.9456 20.9372 24.9139 20.9773 24.8738C21.0173 24.8338 21.0491 24.7863 21.0707 24.734C21.0924 24.6816 21.1035 24.6256 21.1034 24.569V9.05172C21.1017 7.56612 20.5108 6.14186 19.4603 5.09139C18.4099 4.04091 16.9856 3.44999 15.5 3.44828ZM9.07805 13.7931C9.1785 13.0759 9.53479 12.4192 10.0812 11.9439C10.6277 11.4686 11.3275 11.2069 12.0517 11.2069C12.7759 11.2069 13.4757 11.4686 14.0222 11.9439C14.5687 12.4192 14.9249 13.0759 15.0254 13.7931H9.07805ZM15.8875 13.7931C15.7864 12.8463 15.3388 11.9702 14.6307 11.3336C13.9225 10.697 13.0039 10.3448 12.0517 10.3448C11.0995 10.3448 10.1809 10.697 9.47279 11.3336C8.76465 11.9702 8.317 12.8463 8.21598 13.7931H3.86207V9.05172C3.86411 7.79486 4.3643 6.59005 5.25304 5.70131C6.14178 4.81257 7.34658 4.31238 8.60345 4.31034C9.31581 4.30979 10.0143 4.11331 10.6225 3.7424C11.2307 3.37149 11.7251 2.84045 12.0517 2.20737C12.2369 2.56452 12.4751 2.89162 12.7581 3.17759C13.4864 3.90276 14.4722 4.31004 15.5 4.31034C16.757 4.31184 17.9622 4.81185 18.851 5.70071C19.7399 6.58957 20.2399 7.79469 20.2414 9.05172V13.7931H15.8875Z" fill="white" fill-opacity="0.3"/>
<path d="M12.0519 6.89697C11.9953 6.89694 11.9392 6.90807 11.8869 6.92972C11.8346 6.95137 11.7871 6.98311 11.747 7.02315C11.707 7.06318 11.6752 7.11071 11.6536 7.16302C11.6319 7.21533 11.6208 7.27139 11.6208 7.32801V9.05215C11.6208 9.16646 11.6663 9.2761 11.7471 9.35693C11.8279 9.43777 11.9376 9.48318 12.0519 9.48318C12.1662 9.48318 12.2758 9.43777 12.3567 9.35693C12.4375 9.2761 12.4829 9.16646 12.4829 9.05215V7.32801C12.483 7.27139 12.4718 7.21533 12.4502 7.16302C12.4285 7.11071 12.3968 7.06318 12.3567 7.02315C12.3167 6.98311 12.2692 6.95137 12.2169 6.92972C12.1646 6.90807 12.1085 6.89694 12.0519 6.89697Z" fill="white" fill-opacity="0.3"/>
<path d="M15.7155 7.87793C15.6165 7.82122 15.499 7.80599 15.3888 7.83556C15.2785 7.86514 15.1845 7.93711 15.1271 8.03578L14.265 9.52883C14.2367 9.57781 14.2183 9.63189 14.2108 9.68798C14.2034 9.74407 14.2071 9.80108 14.2217 9.85574C14.2363 9.9104 14.2616 9.96165 14.296 10.0066C14.3304 10.0515 14.3734 10.0892 14.4223 10.1175C14.4713 10.1458 14.5254 10.1642 14.5815 10.1716C14.6376 10.179 14.6946 10.1752 14.7493 10.1606C14.8039 10.146 14.8552 10.1207 14.9001 10.0863C14.945 10.0518 14.9826 10.0089 15.0109 9.95986L15.873 8.46682C15.9014 8.41783 15.9198 8.36373 15.9273 8.30759C15.9348 8.25146 15.9311 8.19441 15.9164 8.13971C15.9018 8.08501 15.8765 8.03373 15.8421 7.98881C15.8076 7.94389 15.7646 7.90621 15.7155 7.87793Z" fill="white" fill-opacity="0.3"/>
<path d="M17.8086 10.403L16.316 11.265C16.217 11.3222 16.1447 11.4163 16.1151 11.5268C16.0855 11.6372 16.101 11.7549 16.1582 11.8539C16.2153 11.9529 16.3095 12.0252 16.4199 12.0548C16.5304 12.0844 16.648 12.0689 16.7471 12.0118L18.2397 11.1497C18.3387 11.0925 18.411 10.9984 18.4406 10.8879C18.4702 10.7775 18.4547 10.6598 18.3975 10.5608C18.3404 10.4618 18.2462 10.3895 18.1358 10.3599C18.0253 10.3303 17.9077 10.3458 17.8086 10.403Z" fill="white" fill-opacity="0.3"/>
<path d="M8.97676 8.03619C8.94847 7.98719 8.91081 7.94424 8.86592 7.9098C8.82102 7.87536 8.76979 7.8501 8.71513 7.83546C8.66047 7.82082 8.60347 7.8171 8.54737 7.8245C8.49128 7.8319 8.43719 7.85028 8.3882 7.87859C8.33921 7.9069 8.29627 7.94459 8.26185 7.9895C8.22743 8.0344 8.20219 8.08565 8.18758 8.14032C8.17297 8.19498 8.16927 8.25199 8.1767 8.30808C8.18413 8.36417 8.20253 8.41825 8.23086 8.46723L9.09293 9.96027C9.12122 10.0093 9.15889 10.0522 9.20378 10.0867C9.24867 10.1211 9.29991 10.1464 9.35457 10.161C9.40922 10.1756 9.46623 10.1794 9.52232 10.172C9.57842 10.1646 9.63251 10.1462 9.6815 10.1179C9.73049 10.0896 9.77342 10.0519 9.80784 10.007C9.84226 9.96206 9.8675 9.91081 9.88211 9.85615C9.89672 9.80149 9.90042 9.74448 9.89299 9.68839C9.88557 9.63229 9.86716 9.57822 9.83883 9.52924L8.97676 8.03619Z" fill="white" fill-opacity="0.3"/>
<path d="M7.78759 11.265L6.29497 10.403C6.19595 10.3458 6.07827 10.3303 5.96784 10.3599C5.8574 10.3895 5.76324 10.4618 5.70608 10.5608C5.64892 10.6598 5.63344 10.7775 5.66305 10.8879C5.69265 10.9984 5.76491 11.0925 5.86394 11.1497L7.35656 12.0118C7.45558 12.0689 7.57326 12.0844 7.68369 12.0548C7.79413 12.0252 7.88829 11.9529 7.94545 11.8539C8.0026 11.7549 8.01808 11.6372 7.98848 11.5268C7.95888 11.4163 7.88662 11.3222 7.78759 11.265Z" fill="white" fill-opacity="0.3"/>
<path d="M18.0863 16.3789H6.01734C5.90302 16.3789 5.79339 16.4243 5.71255 16.5052C5.63172 16.586 5.5863 16.6956 5.5863 16.8099C5.5863 16.9243 5.63172 17.0339 5.71255 17.1147C5.79339 17.1956 5.90302 17.241 6.01734 17.241H18.0863C18.2006 17.241 18.3103 17.1956 18.3911 17.1147C18.4719 17.0339 18.5173 16.9243 18.5173 16.8099C18.5173 16.6956 18.4719 16.586 18.3911 16.5052C18.3103 16.4243 18.2006 16.3789 18.0863 16.3789Z" fill="white" fill-opacity="0.3"/>
<path d="M6.87915 18.9653C6.76484 18.9653 6.6552 19.0107 6.57437 19.0916C6.49353 19.1724 6.44812 19.282 6.44812 19.3964C6.44812 19.5107 6.49353 19.6203 6.57437 19.7012C6.6552 19.782 6.76484 19.8274 6.87915 19.8274H9.46536C9.57968 19.8274 9.68931 19.782 9.77015 19.7012C9.85098 19.6203 9.8964 19.5107 9.8964 19.3964C9.8964 19.282 9.85098 19.1724 9.77015 19.0916C9.68931 19.0107 9.57968 18.9653 9.46536 18.9653H6.87915Z" fill="white" fill-opacity="0.3"/>
<path d="M17.6552 19.3964C17.6552 19.3398 17.6441 19.2837 17.6224 19.2314C17.6008 19.1791 17.569 19.1315 17.529 19.0915C17.489 19.0515 17.4415 19.0197 17.3891 18.9981C17.3368 18.9764 17.2808 18.9653 17.2242 18.9653H11.1897C11.0754 18.9653 10.9657 19.0107 10.8849 19.0916C10.804 19.1724 10.7586 19.282 10.7586 19.3964C10.7586 19.5107 10.804 19.6203 10.8849 19.7012C10.9657 19.782 11.0754 19.8274 11.1897 19.8274H17.2242C17.2808 19.8274 17.3368 19.8163 17.3891 19.7947C17.4415 19.773 17.489 19.7413 17.529 19.7012C17.569 19.6612 17.6008 19.6137 17.6224 19.5614C17.6441 19.509 17.6552 19.453 17.6552 19.3964Z" fill="white" fill-opacity="0.3"/>
<path d="M6.01746 22.4138H14.6382C14.7525 22.4138 14.8621 22.3684 14.9429 22.2876C15.0238 22.2067 15.0692 22.0971 15.0692 21.9828C15.0692 21.8685 15.0238 21.7588 14.9429 21.678C14.8621 21.5972 14.7525 21.5518 14.6382 21.5518H6.01746C5.90314 21.5518 5.79351 21.5972 5.71267 21.678C5.63184 21.7588 5.58643 21.8685 5.58643 21.9828C5.58643 22.0971 5.63184 22.2067 5.71267 22.2876C5.79351 22.3684 5.90314 22.4138 6.01746 22.4138Z" fill="white" fill-opacity="0.3"/>
<path d="M16.3617 22.4138H18.0858C18.2002 22.4138 18.3098 22.3684 18.3906 22.2876C18.4715 22.2067 18.5169 22.0971 18.5169 21.9828C18.5169 21.8685 18.4715 21.7588 18.3906 21.678C18.3098 21.5972 18.2002 21.5518 18.0858 21.5518H16.3617C16.2474 21.5518 16.1377 21.5972 16.0569 21.678C15.9761 21.7588 15.9307 21.8685 15.9307 21.9828C15.9307 22.0971 15.9761 22.2067 16.0569 22.2876C16.1377 22.3684 16.2474 22.4138 16.3617 22.4138Z" fill="white" fill-opacity="0.3"/>
<path d="M3.4598 23.9077C3.71372 23.9077 3.91957 22.0551 3.91957 19.7698C3.91957 17.4845 3.71372 15.6318 3.4598 15.6318C3.20588 15.6318 3.00003 17.4845 3.00003 19.7698C3.00003 22.0551 3.20588 23.9077 3.4598 23.9077Z" fill="white" fill-opacity="0.3"/>
</svg>
