<svg width="26" height="40" viewBox="0 0 26 40" fill="none" xmlns="http://www.w3.org/2000/svg">
<path d="M7.96715 33.818V34.262H6.82715V38H6.28115V34.262H5.13515V33.818H7.96715ZM8.43525 36.344C8.43525 36.008 8.50325 35.714 8.63925 35.462C8.77525 35.206 8.96125 35.008 9.19725 34.868C9.43725 34.728 9.70325 34.658 9.99525 34.658C10.2832 34.658 10.5332 34.72 10.7452 34.844C10.9572 34.968 11.1152 35.124 11.2192 35.312V34.712H11.7712V38H11.2192V37.388C11.1112 37.58 10.9492 37.74 10.7332 37.868C10.5212 37.992 10.2732 38.054 9.98925 38.054C9.69725 38.054 9.43325 37.982 9.19725 37.838C8.96125 37.694 8.77525 37.492 8.63925 37.232C8.50325 36.972 8.43525 36.676 8.43525 36.344ZM11.2192 36.35C11.2192 36.102 11.1692 35.886 11.0692 35.702C10.9692 35.518 10.8332 35.378 10.6612 35.282C10.4932 35.182 10.3072 35.132 10.1032 35.132C9.89925 35.132 9.71325 35.18 9.54525 35.276C9.37725 35.372 9.24325 35.512 9.14325 35.696C9.04325 35.88 8.99325 36.096 8.99325 36.344C8.99325 36.596 9.04325 36.816 9.14325 37.004C9.24325 37.188 9.37725 37.33 9.54525 37.43C9.71325 37.526 9.89925 37.574 10.1032 37.574C10.3072 37.574 10.4932 37.526 10.6612 37.43C10.8332 37.33 10.9692 37.188 11.0692 37.004C11.1692 36.816 11.2192 36.598 11.2192 36.35ZM14.0319 35.162H13.3419V38H12.7959V35.162H12.3699V34.712H12.7959V34.478C12.7959 34.11 12.8899 33.842 13.0779 33.674C13.2699 33.502 13.5759 33.416 13.9959 33.416V33.872C13.7559 33.872 13.5859 33.92 13.4859 34.016C13.3899 34.108 13.3419 34.262 13.3419 34.478V34.712H14.0319V35.162ZM15.8325 38.054C15.5805 38.054 15.3545 38.012 15.1545 37.928C14.9545 37.84 14.7965 37.72 14.6805 37.568C14.5645 37.412 14.5005 37.234 14.4885 37.034H15.0525C15.0685 37.198 15.1445 37.332 15.2805 37.436C15.4205 37.54 15.6025 37.592 15.8265 37.592C16.0345 37.592 16.1985 37.546 16.3185 37.454C16.4385 37.362 16.4985 37.246 16.4985 37.106C16.4985 36.962 16.4345 36.856 16.3065 36.788C16.1785 36.716 15.9805 36.646 15.7125 36.578C15.4685 36.514 15.2685 36.45 15.1125 36.386C14.9605 36.318 14.8285 36.22 14.7165 36.092C14.6085 35.96 14.5545 35.788 14.5545 35.576C14.5545 35.408 14.6045 35.254 14.7045 35.114C14.8045 34.974 14.9465 34.864 15.1305 34.784C15.3145 34.7 15.5245 34.658 15.7605 34.658C16.1245 34.658 16.4185 34.75 16.6425 34.934C16.8665 35.118 16.9865 35.37 17.0025 35.69H16.4565C16.4445 35.518 16.3745 35.38 16.2465 35.276C16.1225 35.172 15.9545 35.12 15.7425 35.12C15.5465 35.12 15.3905 35.162 15.2745 35.246C15.1585 35.33 15.1005 35.44 15.1005 35.576C15.1005 35.684 15.1345 35.774 15.2025 35.846C15.2745 35.914 15.3625 35.97 15.4665 36.014C15.5745 36.054 15.7225 36.1 15.9105 36.152C16.1465 36.216 16.3385 36.28 16.4865 36.344C16.6345 36.404 16.7605 36.496 16.8645 36.62C16.9725 36.744 17.0285 36.906 17.0325 37.106C17.0325 37.286 16.9825 37.448 16.8825 37.592C16.7825 37.736 16.6405 37.85 16.4565 37.934C16.2765 38.014 16.0685 38.054 15.8325 38.054ZM18.0853 34.178C17.9813 34.178 17.8933 34.142 17.8213 34.07C17.7493 33.998 17.7133 33.91 17.7133 33.806C17.7133 33.702 17.7493 33.614 17.8213 33.542C17.8933 33.47 17.9813 33.434 18.0853 33.434C18.1853 33.434 18.2693 33.47 18.3373 33.542C18.4093 33.614 18.4453 33.702 18.4453 33.806C18.4453 33.91 18.4093 33.998 18.3373 34.07C18.2693 34.142 18.1853 34.178 18.0853 34.178ZM18.3493 34.712V38H17.8033V34.712H18.3493ZM19.8259 35.246C19.9219 35.058 20.0579 34.912 20.2339 34.808C20.4139 34.704 20.6319 34.652 20.8879 34.652V35.216H20.7439C20.1319 35.216 19.8259 35.548 19.8259 36.212V38H19.2799V34.712H19.8259V35.246Z" fill="white" fill-opacity="0.3"/>
<path d="M24.3013 6.03467C24.0709 6.03928 23.8442 6.09154 23.6364 6.18792C23.4286 6.28431 23.2446 6.42259 23.0968 6.59347C22.9489 6.76434 22.8406 6.96384 22.7792 7.17855C22.7178 7.39326 22.7046 7.6182 22.7406 7.83823C22.5393 7.76943 22.3239 7.74821 22.1124 7.77635C21.9008 7.80449 21.6994 7.88117 21.5247 7.99998C21.3501 8.11879 21.2075 8.27628 21.1087 8.45928C21.01 8.64229 20.958 8.84549 20.9571 9.05189V9.56236C20.7558 9.49356 20.5403 9.47234 20.3288 9.50048C20.1173 9.52862 19.9158 9.6053 19.7412 9.72411C19.5666 9.84292 19.4239 10.0004 19.3252 10.1834C19.2264 10.3664 19.1744 10.5696 19.1735 10.776V13.929C18.941 13.9311 18.7114 13.9783 18.4982 14.0677C18.2849 14.1571 18.0924 14.287 17.932 14.4497L12.931 18.8158L7.95686 14.4756C7.79464 14.3063 7.5986 14.1706 7.38058 14.0766C7.16256 13.9827 6.9271 13.9325 6.68843 13.929V10.776C6.68752 10.5696 6.63551 10.3664 6.53675 10.1834C6.43799 10.0004 6.29535 9.84292 6.12074 9.72411C5.94614 9.6053 5.74465 9.52862 5.53312 9.50048C5.32159 9.47234 5.10616 9.49356 4.90485 9.56236V9.05189C4.90394 8.84549 4.85193 8.64229 4.75317 8.45928C4.65441 8.27628 4.51177 8.11879 4.33716 7.99998C4.16256 7.88117 3.96107 7.80449 3.74954 7.77635C3.53801 7.74821 3.32258 7.76943 3.12127 7.83823C3.16005 7.6314 3.15405 7.41903 3.10366 7.21455C3.05327 7.01006 2.95958 6.81789 2.82849 6.65017C2.69741 6.48245 2.53178 6.34282 2.34206 6.24008C2.15234 6.13735 1.94265 6.07376 1.72622 6.0533C1.5098 6.03285 1.29134 6.05599 1.08463 6.12126C0.877922 6.18653 0.687454 6.29251 0.525249 6.43252C0.363044 6.57252 0.232623 6.74351 0.142219 6.93469C0.0518144 7.12588 0.00338931 7.3331 0 7.54328V15.0863C8.81011e-05 15.1693 0.0248536 15.2505 0.0713432 15.3202L5.35074 23.2256V24.569C5.35074 24.6834 5.39772 24.793 5.48134 24.8738C5.56496 24.9547 5.67838 25.0001 5.79664 25.0001C9.35305 25.0001 16.5098 25.0001 20.0653 25.0001C20.1835 25.0001 20.2969 24.9547 20.3806 24.8738C20.4642 24.793 20.5112 24.6834 20.5112 24.569V23.2256L25.7906 15.3202C25.8371 15.2505 25.8618 15.1693 25.8619 15.0863V7.54328C25.8614 7.14332 25.6968 6.75987 25.4043 6.47706C25.1117 6.19424 24.715 6.03515 24.3013 6.03467ZM21.8489 9.05189C21.8489 8.93757 21.8958 8.82794 21.9795 8.74711C22.0631 8.66627 22.1765 8.62086 22.2948 8.62086C22.413 8.62086 22.5264 8.66627 22.61 8.74711C22.6937 8.82794 22.7406 8.93757 22.7406 9.05189V13.1944L21.8489 14.1349V9.05189ZM20.0653 10.776C20.0653 10.6617 20.1123 10.5521 20.1959 10.4712C20.2795 10.3904 20.3929 10.345 20.5112 10.345C20.6294 10.345 20.7428 10.3904 20.8265 10.4712C20.9101 10.5521 20.9571 10.6617 20.9571 10.776V15.0753L20.9055 15.1299C20.7656 14.71 20.4651 14.3577 20.0653 14.1451V10.776ZM5.35074 10.345C5.46895 10.3451 5.58228 10.3906 5.66587 10.4714C5.74945 10.5522 5.79648 10.6617 5.79664 10.776V14.1451C5.39737 14.3583 5.097 14.7103 4.95652 15.1297L4.90485 15.0753V10.776C4.905 10.6617 4.95203 10.5522 5.03561 10.4714C5.1192 10.3906 5.23253 10.3451 5.35074 10.345ZM3.56716 8.62086C3.68537 8.62101 3.7987 8.66647 3.88229 8.74727C3.96587 8.82807 4.0129 8.93762 4.01306 9.05189V14.1348L3.12127 13.1945V9.05189C3.12142 8.93762 3.16845 8.82807 3.25203 8.74727C3.33562 8.66647 3.44895 8.62101 3.56716 8.62086ZM6.17119 22.8647L0.89179 14.9592V7.54328C0.89179 7.3718 0.962257 7.20735 1.08769 7.0861C1.21312 6.96485 1.38324 6.89673 1.56063 6.89673C1.73802 6.89673 1.90814 6.96485 2.03358 7.0861C2.15901 7.20735 2.22948 7.3718 2.22948 7.54328V13.3622C2.22951 13.47 2.2713 13.574 2.34661 13.6535L4.13019 15.5344L4.13082 15.5349C4.23154 15.641 5.20645 16.6691 5.33406 16.8036C5.33197 16.8059 7.24981 18.8213 7.25141 18.8259C7.33133 18.9102 7.44262 18.9603 7.56079 18.9653C7.67896 18.9703 7.79433 18.9297 7.88153 18.8524C7.96873 18.7752 8.02061 18.6676 8.02575 18.5534C8.0309 18.4391 7.98889 18.3276 7.90897 18.2433L6.57165 16.8331L6.57129 16.8326C6.41371 16.6434 5.88327 16.1768 5.81835 15.9403C5.77869 15.8295 5.76263 15.7121 5.77116 15.5951C5.77968 15.4781 5.8126 15.364 5.86795 15.2596C5.92329 15.1552 5.9999 15.0627 6.09318 14.9878C6.18646 14.9128 6.29448 14.8568 6.41072 14.8232C6.49478 14.7978 6.5828 14.7869 6.67077 14.7909C6.79631 14.794 6.91984 14.8222 7.03362 14.8735C7.14741 14.9249 7.24899 14.9985 7.33203 15.0895L12.4851 19.5882V24.138H6.24253C6.21921 23.9544 6.30678 23.0068 6.17119 22.8647ZM24.9701 14.9592L19.6907 22.8647C19.5544 23.009 19.6434 23.9549 19.6194 24.138H13.3769V19.5882L18.5569 15.0636C18.638 14.979 18.736 14.9112 18.8451 14.8643C18.9541 14.8175 19.0718 14.7925 19.1911 14.7909C19.2814 14.7875 19.3716 14.7995 19.4576 14.8263C19.591 14.8651 19.7131 14.9336 19.8141 15.0264C19.9152 15.1191 19.9922 15.2335 20.0391 15.3603C20.0861 15.4872 20.1015 15.6228 20.0842 15.7565C20.067 15.8901 20.0175 16.018 19.9397 16.1297C19.7993 16.3198 19.4469 16.6574 19.2906 16.8326L17.9529 18.2432C17.873 18.3275 17.831 18.439 17.8362 18.5532C17.8413 18.6674 17.8932 18.775 17.9804 18.8522C18.0676 18.9295 18.1829 18.9701 18.3011 18.9651C18.4193 18.9601 18.5305 18.91 18.6105 18.8257L20.5192 16.8128C20.5278 16.8035 21.7223 15.5442 21.7315 15.5344L23.5151 13.6535C23.5905 13.574 23.6323 13.4701 23.6324 13.3622V7.54328C23.6324 7.3718 23.7029 7.20735 23.8283 7.0861C23.9538 6.96485 24.1239 6.89673 24.3013 6.89673C24.4787 6.89673 24.6488 6.96485 24.7742 7.0861C24.8997 7.20735 24.9701 7.3718 24.9701 7.54328V14.9592Z" fill="white" fill-opacity="0.3"/>
<path d="M17.6599 1.8938H15.0743L13.2458 0.126307C13.2044 0.0862654 13.1553 0.0545003 13.1012 0.0328277C13.0471 0.0111551 12.9891 0 12.9306 0C12.872 0 12.814 0.0111551 12.7599 0.0328277C12.7059 0.0545003 12.6567 0.0862654 12.6153 0.126307L10.7869 1.8938H8.20123C8.08297 1.8938 7.96956 1.93921 7.88593 2.02004C7.80231 2.10088 7.75533 2.21051 7.75533 2.32483V4.8243L5.9269 6.59178C5.88547 6.63179 5.85261 6.6793 5.83019 6.73158C5.80777 6.78387 5.79623 6.83992 5.79623 6.89652C5.79623 6.95313 5.80777 7.00917 5.83019 7.06146C5.85261 7.11375 5.88547 7.16126 5.9269 7.20126L7.75533 8.96875V11.4682C7.75533 11.5825 7.80231 11.6922 7.88593 11.773C7.96956 11.8538 8.08297 11.8993 8.20123 11.8993H10.7869L12.6153 13.6667C12.6567 13.7068 12.7059 13.7385 12.7599 13.7602C12.814 13.7819 12.872 13.793 12.9306 13.793C12.9891 13.793 13.0471 13.7819 13.1012 13.7602C13.1553 13.7385 13.2044 13.7068 13.2458 13.6667L15.0743 11.8993H17.6599C17.7782 11.8993 17.8916 11.8538 17.9752 11.773C18.0588 11.6922 18.1058 11.5825 18.1058 11.4682V8.96875L19.9342 7.20126C19.9757 7.16126 20.0085 7.11375 20.0309 7.06146C20.0534 7.00917 20.0649 6.95313 20.0649 6.89652C20.0649 6.83992 20.0534 6.78387 20.0309 6.73158C20.0085 6.6793 19.9757 6.63179 19.9342 6.59178L18.1058 4.8243V2.32483C18.1058 2.21051 18.0588 2.10088 17.9752 2.02004C17.8916 1.93921 17.7782 1.8938 17.6599 1.8938ZM18.9885 6.89652L17.3447 8.48552C17.3032 8.52554 17.2704 8.57306 17.248 8.62535C17.2256 8.67765 17.214 8.7337 17.214 8.79031V11.0372H14.8897C14.8311 11.0372 14.7731 11.0484 14.719 11.07C14.6649 11.0917 14.6158 11.1234 14.5744 11.1635L12.9306 12.7525L11.2868 11.1635C11.2454 11.1234 11.1962 11.0917 11.1421 11.07C11.088 11.0484 11.03 11.0372 10.9715 11.0372H8.64712V8.79031C8.64712 8.7337 8.63558 8.67765 8.61316 8.62535C8.59074 8.57306 8.55789 8.52554 8.51648 8.48552L6.87269 6.89652L8.51648 5.30753C8.55789 5.2675 8.59074 5.21999 8.61316 5.1677C8.63558 5.1154 8.64712 5.05935 8.64712 5.00274V2.75586H10.9715C11.03 2.75585 11.088 2.7447 11.1421 2.72303C11.1962 2.70136 11.2454 2.6696 11.2868 2.62957L12.9306 1.04057L14.5744 2.62957C14.6158 2.6696 14.6649 2.70136 14.719 2.72303C14.7731 2.7447 14.8311 2.75585 14.8897 2.75586H17.214V5.00274C17.214 5.05935 17.2256 5.1154 17.248 5.1677C17.2704 5.21999 17.3032 5.2675 17.3447 5.30753L18.9885 6.89652Z" fill="white" fill-opacity="0.3"/>
<path d="M16.3228 4.04813C16.3228 3.93381 16.2758 3.82418 16.1922 3.74334C16.1086 3.66251 15.9952 3.6171 15.8769 3.6171H14.3357C12.6803 2.0443 13.1779 2.05081 11.5262 3.6171C9.19605 3.63895 9.56392 3.29197 9.53931 5.53756C7.9096 7.14039 7.91625 6.65462 9.53931 8.25384C9.5616 10.5066 9.20346 10.1504 11.5262 10.1743C13.1898 11.7519 12.6762 11.7451 14.3357 10.1743C16.6659 10.1524 16.298 10.4994 16.3226 8.25384C17.9523 6.651 17.9457 7.13677 16.3226 5.53756L16.3228 4.04813ZM16.4665 6.8957L15.5617 7.77069C15.478 7.85151 15.431 7.96112 15.431 8.07543V9.31249H14.1513C14.033 9.31252 13.9196 9.35795 13.836 9.43879L12.9311 10.3132L12.0263 9.43853C11.9427 9.35769 11.8293 9.31226 11.711 9.31223H10.4313V8.07517C10.4313 7.96087 10.3843 7.85125 10.3007 7.77043L9.39577 6.8957L10.3006 6.0207C10.3843 5.93989 10.4312 5.83027 10.4313 5.71596V4.4789H11.711C11.8292 4.47888 11.9426 4.43345 12.0262 4.35261L12.9311 3.47817L13.836 4.35287C13.9196 4.43371 14.033 4.47914 14.1512 4.47916H15.431V5.71622C15.431 5.83053 15.478 5.94015 15.5616 6.02096L16.4665 6.8957Z" fill="white" fill-opacity="0.3"/>
</svg>
